<svg width="32" height="32" viewBox="0 0 32 32" fill="none" xmlns="http://www.w3.org/2000/svg">
    <path
        d="M24 0C28.4183 0 32 3.58172 32 8V24C32 28.4183 28.4183 32 24 32H8C3.58172 32 0 28.4183 0 24V8C0 3.58172 3.58172 0 8 0H24Z"
        fill="url(#paint0_linear_22_758)" />
    <path
        d="M24 0C28.4183 0 32 3.58172 32 8V24C32 28.4183 28.4183 32 24 32H8C3.58172 32 0 28.4183 0 24V8C0 3.58172 3.58172 0 8 0H24Z"
        stroke="#E5E7EB" />
    <path d="M23.875 26H8.125V6H23.875V26Z" stroke="#E5E7EB" />
    <path
        d="M14.5426 9.91758L13.5117 10.3031C13.4297 10.3332 13.375 10.4125 13.375 10.5C13.375 10.5875 13.4297 10.6668 13.5117 10.6969L14.5426 11.0824L14.9281 12.1133C14.9582 12.1953 15.0375 12.25 15.125 12.25C15.2125 12.25 15.2918 12.1953 15.3219 12.1133L15.7074 11.0824L16.7383 10.6969C16.8203 10.6668 16.875 10.5875 16.875 10.5C16.875 10.4125 16.8203 10.3332 16.7383 10.3031L15.7074 9.91758L15.3219 8.88672C15.2918 8.80469 15.2125 8.75 15.125 8.75C15.0375 8.75 14.9582 8.80469 14.9281 8.88672L14.5426 9.91758ZM9.38555 19.5617C8.87422 20.073 8.87422 20.9043 9.38555 21.4184L10.3316 22.3645C10.843 22.8758 11.6742 22.8758 12.1883 22.3645L22.6145 11.9355C23.1258 11.4242 23.1258 10.593 22.6145 10.0789L21.6684 9.13555C21.157 8.62422 20.3258 8.62422 19.8117 9.13555L9.38555 19.5617ZM21.3758 11.0086L18.5047 13.8797L17.8676 13.2426L20.7387 10.3715L21.3758 11.0086ZM8.33008 11.9547C8.20703 12.0012 8.125 12.1188 8.125 12.25C8.125 12.3812 8.20703 12.4988 8.33008 12.5453L9.875 13.125L10.4547 14.6699C10.5012 14.793 10.6188 14.875 10.75 14.875C10.8812 14.875 10.9988 14.793 11.0453 14.6699L11.625 13.125L13.1699 12.5453C13.293 12.4988 13.375 12.3812 13.375 12.25C13.375 12.1188 13.293 12.0012 13.1699 11.9547L11.625 11.375L11.0453 9.83008C10.9988 9.70703 10.8812 9.625 10.75 9.625C10.6188 9.625 10.5012 9.70703 10.4547 9.83008L9.875 11.375L8.33008 11.9547ZM17.9551 18.9547C17.832 19.0012 17.75 19.1187 17.75 19.25C17.75 19.3813 17.832 19.4988 17.9551 19.5453L19.5 20.125L20.0797 21.6699C20.1262 21.793 20.2437 21.875 20.375 21.875C20.5063 21.875 20.6238 21.793 20.6703 21.6699L21.25 20.125L22.7949 19.5453C22.918 19.4988 23 19.3813 23 19.25C23 19.1187 22.918 19.0012 22.7949 18.9547L21.25 18.375L20.6703 16.8301C20.6238 16.707 20.5063 16.625 20.375 16.625C20.2437 16.625 20.1262 16.707 20.0797 16.8301L19.5 18.375L17.9551 18.9547Z"
        fill="white" />
    <defs>
        <linearGradient id="paint0_linear_22_758" x1="0" y1="16" x2="32" y2="16"
            gradientUnits="userSpaceOnUse">
            <stop stop-color="#A855F7" />
            <stop offset="1" stop-color="#EC4899" />
        </linearGradient>
        <clipPath id="clip0_22_758">
            <path d="M8.125 8.75H23.875V22.75H8.125V8.75Z" fill="white" />
        </clipPath>
    </defs>
</svg>