<svg width="48" height="48" viewBox="0 0 48 48" fill="none" xmlns="http://www.w3.org/2000/svg">
<path d="M40 0C44.4183 0 48 3.58172 48 8V40C48 44.4183 44.4183 48 40 48H8C3.58172 48 0 44.4183 0 40V8C5.15405e-07 3.58172 3.58172 0 8 0H40Z" fill="#FEE2E2"/>
<path d="M40 0C44.4183 0 48 3.58172 48 8V40C48 44.4183 44.4183 48 40 48H8C3.58172 48 0 44.4183 0 40V8C5.15405e-07 3.58172 3.58172 0 8 0H40Z" stroke="#E5E7EB"/>
<path d="M32.75 38H15.25V10H32.75V38Z" stroke="#E5E7EB"/>
<g clip-path="url(#clip0_21_524)">
<path d="M17.75 14.75C17.75 14.0586 17.1914 13.5 16.5 13.5C15.8086 13.5 15.25 14.0586 15.25 14.75V16V27.875V32.25C15.25 32.9414 15.8086 33.5 16.5 33.5C17.1914 33.5 17.75 32.9414 17.75 32.25V27.25L20.2617 26.6211C21.8672 26.2188 23.5664 26.4062 25.0469 27.1445C26.7734 28.0078 28.7773 28.1133 30.582 27.4336L31.9375 26.9258C32.4258 26.7422 32.75 26.2773 32.75 25.7539V16.082C32.75 15.1836 31.8047 14.5977 31 15L30.625 15.1875C28.8164 16.0938 26.6875 16.0938 24.8789 15.1875C23.5078 14.5 21.9336 14.3281 20.4453 14.6992L17.75 15.375V14.75Z" fill="#DC2626"/>
</g>
<defs>
<clipPath id="clip0_21_524">
<path d="M15.25 13.5H32.75V33.5H15.25V13.5Z" fill="white"/>
</clipPath>
</defs>
</svg>
