<svg width="17" height="10" viewBox="0 0 17 10" fill="none" xmlns="http://www.w3.org/2000/svg">
<path fill-rule="evenodd" clip-rule="evenodd" d="M0.368 0.535599C0.597214 0.315071 0.904605 0.194566 1.22262 0.200566C1.54064 0.206567 1.84327 0.338581 2.064 0.567599L8 6.8684L13.936 0.567599C14.0439 0.448647 14.1746 0.352564 14.3203 0.285043C14.466 0.217521 14.6238 0.179936 14.7843 0.174513C14.9448 0.169089 15.1048 0.195939 15.2547 0.253471C15.4046 0.311003 15.5415 0.398047 15.6572 0.509444C15.7729 0.620841 15.865 0.754325 15.9282 0.901987C15.9913 1.04965 16.0242 1.20848 16.0248 1.36908C16.0254 1.52968 15.9938 1.68877 15.9319 1.83692C15.8699 1.98508 15.7788 2.11929 15.664 2.2316L8.864 9.4316C8.75206 9.54774 8.61785 9.64011 8.4694 9.70321C8.32095 9.76631 8.1613 9.79883 8 9.79883C7.8387 9.79883 7.67905 9.76631 7.5306 9.70321C7.38215 9.64011 7.24794 9.54774 7.136 9.4316L0.336 2.2316C0.115472 2.00239 -0.00503313 1.69499 0.000967212 1.37698C0.00696756 1.05896 0.138982 0.756331 0.368 0.535599Z" fill="black"/>
</svg>
