<svg width="9" height="13" viewBox="0 0 9 13" fill="none" xmlns="http://www.w3.org/2000/svg">
<g clip-path="url(#clip0_21_582)">
<g clip-path="url(#clip1_21_582)">
<path d="M3.97012 11.5297C4.26309 11.8227 4.73887 11.8227 5.03184 11.5297L8.78184 7.77969C9.07481 7.48672 9.07481 7.01094 8.78184 6.71797C8.48887 6.425 8.01309 6.425 7.72012 6.71797L5.2498 9.19062V2C5.2498 1.58516 4.91465 1.25 4.4998 1.25C4.08496 1.25 3.7498 1.58516 3.7498 2V9.18828L1.27949 6.72031C0.986523 6.42734 0.510742 6.42734 0.217773 6.72031C-0.0751953 7.01328 -0.0751953 7.48906 0.217773 7.78203L3.96777 11.532L3.97012 11.5297Z" fill="#DC2626"/>
</g>
</g>
<defs>
<clipPath id="clip0_21_582">
<rect width="9" height="12" fill="white" transform="translate(0 0.5)"/>
</clipPath>
<clipPath id="clip1_21_582">
<path d="M0 0.5H9V12.5H0V0.5Z" fill="white"/>
</clipPath>
</defs>
</svg>
