<svg xmlns="http://www.w3.org/2000/svg" width="24" height="24" viewBox="0 0 24 24" fill="none">
<path d="M9 11.999L22 11.999M22 11.999L18.5 14.999M22 11.999L18.5 8.99902" stroke="#2D2D2D" stroke-width="2" stroke-linecap="round" stroke-linejoin="round"/>
<path d="M14.998 16.999C14.986 19.174 14.889 20.352 14.121 21.12C13.242 21.999 11.828 21.999 9.00005 21.999L8.00005 21.999C5.17105 21.999 3.75705 21.999 2.87805 21.12C2.00005 20.242 2.00005 18.827 2.00005 15.999L2.00005 7.99902C2.00005 5.17102 2.00005 3.75602 2.87805 2.87802C3.64705 2.10902 4.82505 2.01302 7.00005 2.00102M14.998 6.99902C14.986 4.82402 14.889 3.64602 14.121 2.87802C13.48 2.23602 12.553 2.06302 11 2.01602" stroke="#2D2D2D" stroke-width="2" stroke-linecap="round"/>
</svg>