<svg width="15" height="16" viewBox="0 0 15 16" fill="none" xmlns="http://www.w3.org/2000/svg">
<g clip-path="url(#clip0_22_819)">
<path d="M2.5 1C1.39688 1 0.5 1.89688 0.5 3V13C0.5 14.1031 1.39688 15 2.5 15H12.5C13.6031 15 14.5 14.1031 14.5 13V5.41563C14.5 4.88438 14.2906 4.375 13.9156 4L11.5 1.58438C11.125 1.20938 10.6156 1 10.0844 1H2.5ZM2.5 4C2.5 3.44688 2.94688 3 3.5 3H9.5C10.0531 3 10.5 3.44688 10.5 4V6C10.5 6.55312 10.0531 7 9.5 7H3.5C2.94688 7 2.5 6.55312 2.5 6V4ZM7.5 9C8.03043 9 8.53914 9.21071 8.91421 9.58579C9.28929 9.96086 9.5 10.4696 9.5 11C9.5 11.5304 9.28929 12.0391 8.91421 12.4142C8.53914 12.7893 8.03043 13 7.5 13C6.96957 13 6.46086 12.7893 6.08579 12.4142C5.71071 12.0391 5.5 11.5304 5.5 11C5.5 10.4696 5.71071 9.96086 6.08579 9.58579C6.46086 9.21071 6.96957 9 7.5 9Z" fill="white"/>
</g>
<defs>
<clipPath id="clip0_22_819">
<path d="M0.5 0H14.5V16H0.5V0Z" fill="white"/>
</clipPath>
</defs>
</svg>
