<svg width="40" height="40" viewBox="0 0 40 40" fill="none" xmlns="http://www.w3.org/2000/svg">
<path d="M32 0C36.4183 0 40 3.58172 40 8V32C40 36.4183 36.4183 40 32 40H8C3.58172 40 0 36.4183 0 32V8C0 3.58172 3.58172 0 8 0H32Z" fill="#F3E8FF"/>
<path d="M32 0C36.4183 0 40 3.58172 40 8V32C40 36.4183 36.4183 40 32 40H8C3.58172 40 0 36.4183 0 32V8C0 3.58172 3.58172 0 8 0H32Z" stroke="#E5E7EB"/>
<path d="M28 32H12V8H28V32Z" stroke="#E5E7EB"/>
<g clip-path="url(#clip0_22_797)">
<path d="M27.4967 17.2063C27.5967 17.4781 27.5123 17.7812 27.2967 17.975L25.9436 19.2063C25.9779 19.4656 25.9967 19.7312 25.9967 20C25.9967 20.2688 25.9779 20.5344 25.9436 20.7937L27.2967 22.025C27.5123 22.2188 27.5967 22.5219 27.4967 22.7937C27.3592 23.1656 27.1936 23.5219 27.0029 23.8656L26.8561 24.1187C26.6498 24.4625 26.4186 24.7875 26.1654 25.0938C25.9811 25.3188 25.6748 25.3937 25.3998 25.3062L23.6592 24.7531C23.2404 25.075 22.7779 25.3438 22.2842 25.5469L21.8936 27.3313C21.8311 27.6156 21.6123 27.8406 21.3248 27.8875C20.8936 27.9594 20.4498 27.9969 19.9967 27.9969C19.5436 27.9969 19.0998 27.9594 18.6686 27.8875C18.3811 27.8406 18.1623 27.6156 18.0998 27.3313L17.7092 25.5469C17.2154 25.3438 16.7529 25.075 16.3342 24.7531L14.5967 25.3094C14.3217 25.3969 14.0154 25.3188 13.8311 25.0969C13.5779 24.7906 13.3467 24.4656 13.1404 24.1219L12.9936 23.8687C12.8029 23.525 12.6373 23.1687 12.4998 22.7969C12.3998 22.525 12.4842 22.2219 12.6998 22.0281L14.0529 20.7969C14.0186 20.5344 13.9998 20.2688 13.9998 20C13.9998 19.7312 14.0186 19.4656 14.0529 19.2063L12.6998 17.975C12.4842 17.7812 12.3998 17.4781 12.4998 17.2063C12.6373 16.8344 12.8029 16.4781 12.9936 16.1344L13.1404 15.8812C13.3467 15.5375 13.5779 15.2125 13.8311 14.9062C14.0154 14.6813 14.3217 14.6062 14.5967 14.6937L16.3373 15.2469C16.7561 14.925 17.2186 14.6562 17.7123 14.4531L18.1029 12.6687C18.1654 12.3844 18.3842 12.1594 18.6717 12.1125C19.1029 12.0375 19.5467 12 19.9998 12C20.4529 12 20.8967 12.0375 21.3279 12.1094C21.6154 12.1562 21.8342 12.3812 21.8967 12.6656L22.2873 14.45C22.7811 14.6531 23.2436 14.9219 23.6623 15.2438L25.4029 14.6906C25.6779 14.6031 25.9842 14.6813 26.1686 14.9031C26.4217 15.2094 26.6529 15.5344 26.8592 15.8781L27.0061 16.1312C27.1967 16.475 27.3623 16.8313 27.4998 17.2031L27.4967 17.2063ZM19.9998 22.5C20.6629 22.5 21.2987 22.2366 21.7676 21.7678C22.2364 21.2989 22.4998 20.663 22.4998 20C22.4998 19.337 22.2364 18.7011 21.7676 18.2322C21.2987 17.7634 20.6629 17.5 19.9998 17.5C19.3368 17.5 18.7009 17.7634 18.232 18.2322C17.7632 18.7011 17.4998 19.337 17.4998 20C17.4998 20.663 17.7632 21.2989 18.232 21.7678C18.7009 22.2366 19.3368 22.5 19.9998 22.5Z" fill="#9333EA"/>
</g>
<defs>
<clipPath id="clip0_22_797">
<path d="M12 12H28V28H12V12Z" fill="white"/>
</clipPath>
</defs>
</svg>
