<svg width="48" height="48" viewBox="0 0 48 48" fill="none" xmlns="http://www.w3.org/2000/svg">
<path d="M40 0C44.4183 0 48 3.58172 48 8V40C48 44.4183 44.4183 48 40 48H8C3.58172 48 0 44.4183 0 40V8C5.15405e-07 3.58172 3.58172 0 8 0H40Z" fill="#F3E8FF"/>
<path d="M40 0C44.4183 0 48 3.58172 48 8V40C48 44.4183 44.4183 48 40 48H8C3.58172 48 0 44.4183 0 40V8C5.15405e-07 3.58172 3.58172 0 8 0H40Z" stroke="#E5E7EB"/>
<path d="M32.75 38H15.25V10H32.75V38Z" stroke="#E5E7EB"/>
<g clip-path="url(#clip0_21_522)">
<path d="M19 13.5C16.9297 13.5 15.25 15.1797 15.25 17.25V29.75C15.25 31.8203 16.9297 33.5 19 33.5H30.25H31.5C32.1914 33.5 32.75 32.9414 32.75 32.25C32.75 31.5586 32.1914 31 31.5 31V28.5C32.1914 28.5 32.75 27.9414 32.75 27.25V14.75C32.75 14.0586 32.1914 13.5 31.5 13.5H30.25H19ZM19 28.5H29V31H19C18.3086 31 17.75 30.4414 17.75 29.75C17.75 29.0586 18.3086 28.5 19 28.5ZM20.25 19.125C20.25 18.7812 20.5312 18.5 20.875 18.5H28.375C28.7188 18.5 29 18.7812 29 19.125C29 19.4688 28.7188 19.75 28.375 19.75H20.875C20.5312 19.75 20.25 19.4688 20.25 19.125ZM20.875 21H28.375C28.7188 21 29 21.2812 29 21.625C29 21.9688 28.7188 22.25 28.375 22.25H20.875C20.5312 22.25 20.25 21.9688 20.25 21.625C20.25 21.2812 20.5312 21 20.875 21Z" fill="#9333EA"/>
</g>
<defs>
<clipPath id="clip0_21_522">
<path d="M15.25 13.5H32.75V33.5H15.25V13.5Z" fill="white"/>
</clipPath>
</defs>
</svg>
