<svg width="48" height="48" viewBox="0 0 48 48" fill="none" xmlns="http://www.w3.org/2000/svg">
<path d="M40 0C44.4183 0 48 3.58172 48 8V40C48 44.4183 44.4183 48 40 48H8C3.58172 48 0 44.4183 0 40V8C5.15405e-07 3.58172 3.58172 0 8 0H40Z" fill="#DCFCE7"/>
<path d="M40 0C44.4183 0 48 3.58172 48 8V40C48 44.4183 44.4183 48 40 48H8C3.58172 48 0 44.4183 0 40V8C5.15405e-07 3.58172 3.58172 0 8 0H40Z" stroke="#E5E7EB"/>
<path d="M35.25 38H12.75V10H35.25V38Z" stroke="#E5E7EB"/>
<g clip-path="url(#clip0_21_520)">
<path d="M24.8203 17.6406C25.2656 17.3672 25.5625 16.8711 25.5625 16.3125C25.5625 15.4492 24.8633 14.75 24 14.75C23.1367 14.75 22.4375 15.4492 22.4375 16.3125C22.4375 16.875 22.7344 17.3672 23.1797 17.6406L20.9414 22.1172C20.5859 22.8281 19.6641 23.0312 19.043 22.5352L15.5625 19.75C15.7578 19.4883 15.875 19.1641 15.875 18.8125C15.875 17.9492 15.1758 17.25 14.3125 17.25C13.4492 17.25 12.75 17.9492 12.75 18.8125C12.75 19.6758 13.4492 20.375 14.3125 20.375C14.3203 20.375 14.332 20.375 14.3398 20.375L16.125 30.1953C16.3398 31.3828 17.375 32.25 18.5859 32.25H29.4141C30.6211 32.25 31.6562 31.3867 31.875 30.1953L33.6602 20.375C33.668 20.375 33.6797 20.375 33.6875 20.375C34.5508 20.375 35.25 19.6758 35.25 18.8125C35.25 17.9492 34.5508 17.25 33.6875 17.25C32.8242 17.25 32.125 17.9492 32.125 18.8125C32.125 19.1641 32.2422 19.4883 32.4375 19.75L28.957 22.5352C28.3359 23.0312 27.4141 22.8281 27.0586 22.1172L24.8203 17.6406Z" fill="#16A34A"/>
</g>
<defs>
<clipPath id="clip0_21_520">
<path d="M12.75 13.5H35.25V33.5H12.75V13.5Z" fill="white"/>
</clipPath>
</defs>
</svg>
