<svg width="48" height="48" viewBox="0 0 48 48" fill="none" xmlns="http://www.w3.org/2000/svg">
<path d="M40 0C44.4183 0 48 3.58172 48 8V40C48 44.4183 44.4183 48 40 48H8C3.58172 48 0 44.4183 0 40V8C5.15405e-07 3.58172 3.58172 0 8 0H40Z" fill="#FFEDD5"/>
<path d="M40 0C44.4183 0 48 3.58172 48 8V40C48 44.4183 44.4183 48 40 48H8C3.58172 48 0 44.4183 0 40V8C5.15405e-07 3.58172 3.58172 0 8 0H40Z" stroke="#E5E7EB"/>
<path d="M31.5 38H16.5V10H31.5V38Z" stroke="#E5E7EB"/>
<g clip-path="url(#clip0_22_1205)">
<path d="M17.75 13.5C17.0586 13.5 16.5 14.0586 16.5 14.75C16.5 15.4414 17.0586 16 17.75 16V16.4297C17.75 18.0859 18.4102 19.6758 19.582 20.8477L22.2305 23.5L19.582 26.1523C18.4102 27.3242 17.75 28.9141 17.75 30.5703V31C17.0586 31 16.5 31.5586 16.5 32.25C16.5 32.9414 17.0586 33.5 17.75 33.5H19H29H30.25C30.9414 33.5 31.5 32.9414 31.5 32.25C31.5 31.5586 30.9414 31 30.25 31V30.5703C30.25 28.9141 29.5898 27.3242 28.418 26.1523L25.7695 23.5L28.4219 20.8477C29.5938 19.6758 30.2539 18.0859 30.2539 16.4297V16C30.9453 16 31.5039 15.4414 31.5039 14.75C31.5039 14.0586 30.9453 13.5 30.2539 13.5H29H19H17.75ZM20.25 16.4297V16H27.75V16.4297C27.75 17.1719 27.5312 17.8906 27.125 18.5H20.875C20.4727 17.8906 20.25 17.1719 20.25 16.4297ZM20.875 28.5C21.0117 28.293 21.1719 28.0977 21.3477 27.918L24 25.2695L26.6523 27.9219C26.832 28.1016 26.9883 28.2969 27.125 28.5039H20.875V28.5Z" fill="#EA580C"/>
</g>
<defs>
<clipPath id="clip0_22_1205">
<path d="M16.5 13.5H31.5V33.5H16.5V13.5Z" fill="white"/>
</clipPath>
</defs>
</svg>
