<svg width="9" height="13" viewBox="0 0 9 13" fill="none" xmlns="http://www.w3.org/2000/svg">
<g clip-path="url(#clip0_21_552)">
<g clip-path="url(#clip1_21_552)">
<path d="M5.02949 1.4707C4.73652 1.17773 4.26074 1.17773 3.96777 1.4707L0.217773 5.2207C-0.0751953 5.51367 -0.0751953 5.98945 0.217773 6.28242C0.510742 6.57539 0.986523 6.57539 1.27949 6.28242L3.7498 3.80977V11.0004C3.7498 11.4152 4.08496 11.7504 4.4998 11.7504C4.91465 11.7504 5.2498 11.4152 5.2498 11.0004V3.80977L7.72012 6.28008C8.01309 6.57305 8.48887 6.57305 8.78184 6.28008C9.07481 5.98711 9.07481 5.51133 8.78184 5.21836L5.03184 1.46836L5.02949 1.4707Z" fill="#16A34A"/>
</g>
</g>
<defs>
<clipPath id="clip0_21_552">
<rect width="9" height="12" fill="white" transform="translate(0 0.5)"/>
</clipPath>
<clipPath id="clip1_21_552">
<path d="M0 0.5H9V12.5H0V0.5Z" fill="white"/>
</clipPath>
</defs>
</svg>
