<svg xmlns="http://www.w3.org/2000/svg" width="24" height="24" viewBox="0 0 24 24" fill="none">
<path d="M14.8563 4C14.0533 3.99982 13.2614 4.18774 12.5441 4.54871C11.8267 4.90968 11.204 5.43366 10.7256 6.07865C10.2472 6.72365 9.92661 7.47174 9.78941 8.26296C9.65222 9.05418 9.70227 9.86654 9.93556 10.6349L4 16.5705V19.9988H7.42832L13.3639 14.0632C14.0712 14.2779 14.8165 14.3376 15.549 14.2383C16.2814 14.1389 16.9839 13.8827 17.6084 13.4873C18.2329 13.0919 18.7649 12.5665 19.168 11.9469C19.5711 11.3273 19.8359 10.6281 19.9444 9.89689C20.0528 9.1657 20.0023 8.41973 19.7964 7.70981C19.5905 6.99988 19.2339 6.3427 18.751 5.78304C18.2681 5.22339 17.6703 4.77441 16.9982 4.46671C16.3261 4.15902 15.5955 3.99983 14.8563 4ZM14.8563 13.1422C14.4629 13.1421 14.0717 13.0839 13.6953 12.9696L13.0399 12.7708L12.5559 13.2547L10.7384 15.0723L9.95041 14.2849L9.14247 15.0929L9.93041 15.8808L9.0242 16.787L8.23626 15.9991L7.42832 16.807L8.21626 17.595L6.95521 18.856H5.14277V17.0436L10.7435 11.4429L11.228 10.9589L11.0292 10.3035C10.785 9.49844 10.8008 8.63684 11.0745 7.84129C11.3482 7.04574 11.8658 6.35675 12.5537 5.87233C13.2415 5.38791 14.0646 5.13272 14.9059 5.14307C15.7471 5.15342 16.5637 5.42878 17.2394 5.92998C17.9151 6.43118 18.4156 7.13269 18.6697 7.93474C18.9237 8.73678 18.9184 9.59851 18.6544 10.3973C18.3905 11.1962 17.8813 11.8914 17.1994 12.3842C16.5176 12.877 15.6976 13.1422 14.8563 13.1422Z" fill="#2D2D2D"/>
<path d="M15.4279 9.71377C16.0591 9.71377 16.5707 9.20213 16.5707 8.57099C16.5707 7.93986 16.0591 7.42822 15.4279 7.42822C14.7968 7.42822 14.2852 7.93986 14.2852 8.57099C14.2852 9.20213 14.7968 9.71377 15.4279 9.71377Z" fill="#2D2D2D"/>
</svg>