<svg width="48" height="48" viewBox="0 0 48 48" fill="none" xmlns="http://www.w3.org/2000/svg">
<path d="M40 0C44.4183 0 48 3.58172 48 8V40C48 44.4183 44.4183 48 40 48H8C3.58172 48 0 44.4183 0 40V8C5.15405e-07 3.58172 3.58172 0 8 0H40Z" fill="#DBEAFE"/>
<path d="M40 0C44.4183 0 48 3.58172 48 8V40C48 44.4183 44.4183 48 40 48H8C3.58172 48 0 44.4183 0 40V8C5.15405e-07 3.58172 3.58172 0 8 0H40Z" stroke="#E5E7EB"/>
<path d="M36.5 38H11.5V10H36.5V38Z" stroke="#E5E7EB"/>
<g clip-path="url(#clip0_21_518)">
<path d="M17.125 13.5C17.9538 13.5 18.7487 13.8292 19.3347 14.4153C19.9208 15.0013 20.25 15.7962 20.25 16.625C20.25 17.4538 19.9208 18.2487 19.3347 18.8347C18.7487 19.4208 17.9538 19.75 17.125 19.75C16.2962 19.75 15.5013 19.4208 14.9153 18.8347C14.3292 18.2487 14 17.4538 14 16.625C14 15.7962 14.3292 15.0013 14.9153 14.4153C15.5013 13.8292 16.2962 13.5 17.125 13.5ZM31.5 13.5C32.3288 13.5 33.1237 13.8292 33.7097 14.4153C34.2958 15.0013 34.625 15.7962 34.625 16.625C34.625 17.4538 34.2958 18.2487 33.7097 18.8347C33.1237 19.4208 32.3288 19.75 31.5 19.75C30.6712 19.75 29.8763 19.4208 29.2903 18.8347C28.7042 18.2487 28.375 17.4538 28.375 16.625C28.375 15.7962 28.7042 15.0013 29.2903 14.4153C29.8763 13.8292 30.6712 13.5 31.5 13.5ZM11.5 25.168C11.5 22.8672 13.3672 21 15.668 21H17.3359C17.957 21 18.5469 21.1367 19.0781 21.3789C19.0273 21.6602 19.0039 21.9531 19.0039 22.25C19.0039 23.7422 19.6602 25.082 20.6953 26C20.6875 26 20.6797 26 20.668 26H12.332C11.875 26 11.5 25.625 11.5 25.168ZM27.332 26C27.3242 26 27.3164 26 27.3047 26C28.3438 25.082 28.9961 23.7422 28.9961 22.25C28.9961 21.9531 28.9688 21.6641 28.9219 21.3789C29.4531 21.1328 30.043 21 30.6641 21H32.332C34.6328 21 36.5 22.8672 36.5 25.168C36.5 25.6289 36.125 26 35.668 26H27.332ZM20.25 22.25C20.25 21.2554 20.6451 20.3016 21.3483 19.5983C22.0516 18.8951 23.0054 18.5 24 18.5C24.9946 18.5 25.9484 18.8951 26.6517 19.5983C27.3549 20.3016 27.75 21.2554 27.75 22.25C27.75 23.2446 27.3549 24.1984 26.6517 24.9017C25.9484 25.6049 24.9946 26 24 26C23.0054 26 22.0516 25.6049 21.3483 24.9017C20.6451 24.1984 20.25 23.2446 20.25 22.25ZM16.5 32.457C16.5 29.582 18.832 27.25 21.707 27.25H26.293C29.168 27.25 31.5 29.582 31.5 32.457C31.5 33.0312 31.0352 33.5 30.457 33.5H17.543C16.9688 33.5 16.5 33.0352 16.5 32.457Z" fill="#2563EB"/>
</g>
<defs>
<clipPath id="clip0_21_518">
<path d="M11.5 13.5H36.5V33.5H11.5V13.5Z" fill="white"/>
</clipPath>
</defs>
</svg>

