<svg width="19" height="16" viewBox="0 0 19 16" fill="none" xmlns="http://www.w3.org/2000/svg">
<g clip-path="url(#clip0_22_1433)">
<path d="M16.0594 12.8219C16.0594 13.0344 15.9156 13.1875 15.7094 13.1875C15.4969 13.1875 15.3594 13.025 15.3594 12.8219C15.3594 12.6187 15.4969 12.4563 15.7094 12.4563C15.9156 12.4563 16.0594 12.6187 16.0594 12.8219ZM6.34688 12.4563C6.125 12.4563 5.99687 12.6187 5.99687 12.8219C5.99687 13.025 6.125 13.1875 6.34688 13.1875C6.55 13.1875 6.6875 13.0344 6.6875 12.8219C6.68437 12.6187 6.55 12.4563 6.34688 12.4563ZM10.0188 12.4469C9.85 12.4469 9.74687 12.5562 9.72188 12.7188H10.3188C10.2906 12.5406 10.1813 12.4469 10.0188 12.4469ZM13.3875 12.4563C13.175 12.4563 13.0469 12.6187 13.0469 12.8219C13.0469 13.025 13.175 13.1875 13.3875 13.1875C13.6 13.1875 13.7375 13.0344 13.7375 12.8219C13.7375 12.6187 13.6 12.4563 13.3875 12.4563ZM16.6969 13.2719C16.6969 13.2812 16.7063 13.2875 16.7063 13.3062C16.7063 13.3156 16.6969 13.3219 16.6969 13.3406C16.6875 13.35 16.6875 13.3563 16.6812 13.3656C16.6719 13.375 16.6656 13.3813 16.6469 13.3813C16.6375 13.3906 16.6313 13.3906 16.6125 13.3906C16.6031 13.3906 16.5969 13.3906 16.5781 13.3813C16.5688 13.3813 16.5625 13.3719 16.5531 13.3656C16.5438 13.3563 16.5375 13.35 16.5375 13.3406C16.5281 13.325 16.5281 13.3156 16.5281 13.3062C16.5281 13.2906 16.5281 13.2812 16.5375 13.2719C16.5375 13.2563 16.5469 13.2469 16.5531 13.2375C16.5625 13.2281 16.5688 13.2281 16.5781 13.2219C16.5938 13.2125 16.6031 13.2125 16.6125 13.2125C16.6281 13.2125 16.6375 13.2125 16.6469 13.2219C16.6625 13.2312 16.6719 13.2312 16.6812 13.2375C16.6906 13.2438 16.6875 13.2563 16.6969 13.2719ZM16.6281 13.3156C16.6438 13.3156 16.6438 13.3062 16.6531 13.3062C16.6625 13.2969 16.6625 13.2906 16.6625 13.2812C16.6625 13.2719 16.6625 13.2656 16.6531 13.2563C16.6438 13.2563 16.6375 13.2469 16.6187 13.2469H16.5688V13.3562H16.5938V13.3125H16.6031L16.6375 13.3562H16.6625L16.6281 13.3156ZM18.9688 2.53125V13.5312C18.9688 14.3594 18.2969 15.0312 17.4688 15.0312H2.46875C1.64062 15.0312 0.96875 14.3594 0.96875 13.5312V2.53125C0.96875 1.70312 1.64062 1.03125 2.46875 1.03125H17.4688C18.2969 1.03125 18.9688 1.70312 18.9688 2.53125ZM2.96875 6.89375C2.96875 9.28438 4.90937 11.2219 7.29688 11.2219C8.14687 11.2219 8.98125 10.9656 9.6875 10.5C7.40938 8.64687 7.425 5.15 9.6875 3.29688C8.98125 2.82812 8.14687 2.575 7.29688 2.575C4.90937 2.57188 2.96875 4.5125 2.96875 6.89375ZM9.96875 10.2937C12.1719 8.575 12.1625 5.225 9.96875 3.49688C7.775 5.225 7.76562 8.57812 9.96875 10.2937ZM5.52187 12.6781C5.52187 12.4062 5.34375 12.2281 5.0625 12.2188C4.91875 12.2188 4.76562 12.2625 4.6625 12.4219C4.5875 12.2937 4.45937 12.2188 4.28125 12.2188C4.1625 12.2188 4.04375 12.2625 3.95 12.3875V12.25H3.69375V13.3969H3.95C3.95 12.8063 3.87188 12.4531 4.23125 12.4531C4.55 12.4531 4.4875 12.7719 4.4875 13.3969H4.73438C4.73438 12.825 4.65625 12.4531 5.01562 12.4531C5.33437 12.4531 5.27187 12.7656 5.27187 13.3969H5.52812V12.6781H5.52187ZM6.925 12.25H6.67812V12.3875C6.59375 12.2844 6.475 12.2188 6.3125 12.2188C5.99062 12.2188 5.74375 12.475 5.74375 12.8219C5.74375 13.1719 5.99062 13.425 6.3125 13.425C6.475 13.425 6.59375 13.3656 6.67812 13.2563V13.4H6.925V12.25ZM8.19063 13.05C8.19063 12.5813 7.475 12.7937 7.475 12.575C7.475 12.3969 7.84687 12.425 8.05312 12.5406L8.15625 12.3375C7.8625 12.1469 7.2125 12.15 7.2125 12.5938C7.2125 13.0406 7.92812 12.8531 7.92812 13.0625C7.92812 13.2594 7.50625 13.2437 7.28125 13.0875L7.17188 13.2844C7.52187 13.5219 8.19063 13.4719 8.19063 13.05ZM9.29688 13.3406L9.22812 13.1281C9.10938 13.1938 8.84688 13.2656 8.84688 13V12.4812H9.25625V12.25H8.84688V11.9H8.59062V12.25H8.35313V12.4781H8.59062V13C8.59062 13.55 9.13125 13.45 9.29688 13.3406ZM9.7125 12.9219H10.5719C10.5719 12.4156 10.3406 12.2156 10.0281 12.2156C9.69687 12.2156 9.45938 12.4625 9.45938 12.8188C9.45938 13.4594 10.1656 13.5656 10.5156 13.2625L10.3969 13.075C10.1531 13.275 9.78437 13.2563 9.7125 12.9219ZM11.5594 12.25C11.4156 12.1875 11.1969 12.1937 11.0844 12.3875V12.25H10.8281V13.3969H11.0844V12.75C11.0844 12.3875 11.3813 12.4344 11.4844 12.4875L11.5594 12.25ZM11.8906 12.8219C11.8906 12.4656 12.2531 12.35 12.5375 12.5594L12.6562 12.3562C12.2937 12.0719 11.6344 12.2281 11.6344 12.825C11.6344 13.4437 12.3344 13.5687 12.6562 13.2937L12.5375 13.0906C12.25 13.2937 11.8906 13.1719 11.8906 12.8219ZM13.975 12.25H13.7188V12.3875C13.4594 12.0437 12.7844 12.2375 12.7844 12.8219C12.7844 13.4219 13.4844 13.5938 13.7188 13.2563V13.4H13.975V12.25ZM15.0281 12.25C14.9531 12.2125 14.6844 12.1594 14.5531 12.3875V12.25H14.3062V13.3969H14.5531V12.75C14.5531 12.4062 14.8344 12.4281 14.9531 12.4875L15.0281 12.25ZM16.2875 11.7844H16.0406V12.3875C15.7844 12.0469 15.1062 12.2281 15.1062 12.8219C15.1062 13.4281 15.8094 13.5906 16.0406 13.2563V13.4H16.2875V11.7844ZM16.525 9.4375V9.58125H16.55V9.4375H16.6094V9.4125H16.4656V9.4375H16.525ZM16.7312 13.3062C16.7312 13.2906 16.7312 13.2719 16.7219 13.2563C16.7125 13.2469 16.7062 13.2312 16.6969 13.2219C16.6875 13.2125 16.6719 13.2062 16.6625 13.1969C16.6469 13.1969 16.6281 13.1875 16.6125 13.1875C16.6031 13.1875 16.5875 13.1969 16.5688 13.1969C16.5531 13.2062 16.5437 13.2125 16.5344 13.2219C16.5188 13.2312 16.5094 13.2469 16.5094 13.2563C16.5 13.2719 16.5 13.2906 16.5 13.3062C16.5 13.3156 16.5 13.3313 16.5094 13.35C16.5094 13.3594 16.5188 13.375 16.5344 13.3844C16.5437 13.3937 16.55 13.4 16.5688 13.4094C16.5844 13.4187 16.6031 13.4187 16.6125 13.4187C16.6281 13.4187 16.6469 13.4187 16.6625 13.4094C16.6719 13.4 16.6875 13.3937 16.6969 13.3844C16.7062 13.375 16.7125 13.3594 16.7219 13.35C16.7312 13.3313 16.7312 13.3156 16.7312 13.3062ZM16.8313 9.40938H16.7875L16.7375 9.51875L16.6875 9.40938H16.6438V9.57812H16.6687V9.45L16.7188 9.55937H16.7531L16.7969 9.45V9.57812H16.8313V9.40938ZM16.9688 6.89375C16.9688 4.5125 15.0281 2.57188 12.6406 2.57188C11.7906 2.57188 10.9563 2.82812 10.25 3.29375C12.5031 5.14687 12.5375 8.65312 10.25 10.4969C10.9563 10.9656 11.7969 11.2188 12.6406 11.2188C15.0281 11.2219 16.9688 9.28438 16.9688 6.89375Z" fill="#DC2626"/>
</g>
<defs>
<clipPath id="clip0_22_1433">
<path d="M0.96875 0H18.9688V16H0.96875V0Z" fill="white"/>
</clipPath>
</defs>
</svg>
