<svg width="19" height="16" viewBox="0 0 19 16" fill="none" xmlns="http://www.w3.org/2000/svg">
<g clip-path="url(#clip0_22_1424)">
<path d="M15.6594 7.22813C15.6594 7.22813 15.8969 8.39062 15.95 8.63437H14.9062C15.0094 8.35625 15.4062 7.275 15.4062 7.275C15.4 7.28438 15.5094 6.99062 15.5719 6.80937L15.6594 7.22813ZM18.9688 2.5V13.5C18.9688 14.3281 18.2969 15 17.4688 15H2.46875C1.64062 15 0.96875 14.3281 0.96875 13.5V2.5C0.96875 1.67188 1.64062 1 2.46875 1H17.4688C18.2969 1 18.9688 1.67188 18.9688 2.5ZM5.73438 10.35L7.70937 5.5H6.38125L5.15312 8.8125L5.01875 8.14062L4.58125 5.90938C4.50937 5.6 4.2875 5.5125 4.0125 5.5H1.99063L1.96875 5.59688C2.4625 5.72188 2.90312 5.90312 3.2875 6.13125L4.40625 10.35H5.73438ZM8.68437 10.3562L9.47188 5.5H8.21562L7.43125 10.3562H8.68437ZM13.0562 8.76875C13.0625 8.21563 12.725 7.79375 12.0031 7.44688C11.5625 7.225 11.2937 7.075 11.2937 6.84688C11.3 6.64062 11.5219 6.42812 12.0156 6.42812C12.425 6.41875 12.725 6.51562 12.95 6.6125L13.0625 6.66563L13.2344 5.61562C12.9875 5.51875 12.5938 5.40938 12.1094 5.40938C10.8687 5.40938 9.99688 6.07188 9.99063 7.01562C9.98125 7.7125 10.6156 8.1 11.0906 8.33438C11.575 8.57188 11.7406 8.72813 11.7406 8.9375C11.7344 9.2625 11.3469 9.4125 10.9875 9.4125C10.4875 9.4125 10.2188 9.33437 9.80937 9.15312L9.64375 9.075L9.46875 10.1656C9.7625 10.3 10.3062 10.4187 10.8687 10.425C12.1875 10.4281 13.0469 9.775 13.0562 8.76875ZM17.4688 10.3562L16.4563 5.5H15.4844C15.1844 5.5 14.9563 5.5875 14.8281 5.90312L12.9625 10.3562H14.2812C14.2812 10.3562 14.4969 9.75625 14.5437 9.62813H16.1562C16.1938 9.8 16.3062 10.3562 16.3062 10.3562H17.4688Z" fill="#2563EB"/>
</g>
<defs>
<clipPath id="clip0_22_1424">
<path d="M0.96875 0H18.9688V16H0.96875V0Z" fill="white"/>
</clipPath>
</defs>
</svg>
